<svg width="80" height="80" viewBox="0 0 80 80" fill="none" xmlns="http://www.w3.org/2000/svg">
<rect width="80" height="80" fill="white"/>
<path d="M49.4375 60.216V29.88H61.0215L61.3415 32.312C62.5788 31.5867 64.1575 30.9254 66.0775 30.328C67.9975 29.7307 69.9388 29.368 71.9015 29.24V38.2C70.7922 38.2854 69.5762 38.4347 68.2535 38.648C66.9735 38.8614 65.7148 39.1387 64.4775 39.48C63.2828 39.7787 62.2802 40.12 61.4695 40.504V60.216H49.4375Z" fill="#B71F23"/>
<path d="M8 60.216V19H30.656C34.8373 19 38.016 19.9813 40.192 21.944C42.368 23.9067 43.456 26.7227 43.456 30.392C43.456 32.5253 43.0507 34.3173 42.24 35.768C41.472 37.2187 40.448 38.3707 39.168 39.224C40.9173 39.9067 42.304 40.9093 43.328 42.232C44.3947 43.512 44.928 45.432 44.928 47.992C44.928 51.8747 43.7333 54.8827 41.344 57.016C38.9547 59.1493 35.5627 60.216 31.168 60.216H8ZM19.584 35.448H27.392C30.336 35.448 31.808 34.1253 31.808 31.48C31.808 30.1573 31.4453 29.1547 30.72 28.472C30.0373 27.7893 28.8213 27.448 27.072 27.448H19.584V35.448ZM19.584 51.832H27.904C29.5253 51.832 30.72 51.4907 31.488 50.808C32.256 50.1253 32.64 48.9947 32.64 47.416C32.64 46.0933 32.256 45.0907 31.488 44.408C30.72 43.7253 29.44 43.384 27.648 43.384H19.584V51.832Z" fill="#1C1917"/>
</svg>
